<svg width="120" height="110" viewBox="0 0 120 110" fill="none" xmlns="http://www.w3.org/2000/svg">
<path d="M38.2742 0H81.2816C91.5501 0.0010626 101.397 4.05108 108.658 11.2593C115.919 18.4675 119.998 28.2436 120 38.4378V71.5662C120 76.6137 118.999 81.6119 117.052 86.2752C115.108 90.9383 112.255 95.1755 108.66 98.7444C105.065 102.313 100.795 105.144 96.0977 107.076C91.3998 109.007 86.3661 110 81.2816 110H38.7184C33.6339 110 28.6002 109.007 23.9023 107.076C19.2045 105.144 14.9354 102.313 11.3402 98.7444C7.74501 95.1755 4.89228 90.9383 2.94774 86.2752C1.00099 81.6119 0 76.6137 0 71.5662V38.4378C0 17.2054 16.8865 0 38.2742 0Z" fill="#21201F"/>
<path d="M48.7985 62.1936V60.3265H37.4716V52.0164H59.5553V61.9012C59.5553 77.4599 52.0711 86.4992 37.9157 86.4992C23.3185 86.4992 14.8398 75.0797 14.8398 54.9453C14.8398 35.3118 24.0919 23.2913 41.0668 23.2913C47.4793 23.2913 53.0102 24.9782 56.0331 27.1738V35.7285C51.691 33.0573 46.6905 31.6251 41.5838 31.5894C30.4514 31.5894 25.7315 39.0943 25.7315 54.9453C25.7315 70.3195 29.6404 78.185 38.1168 78.185C46.2154 78.225 48.7985 72.0025 48.7985 62.1936Z" fill="white"/>
<path d="M105.353 63.3636C105.353 78.3009 97.2413 86.5351 85.5807 86.5351C73.9202 86.5351 65.8105 78.3009 65.8105 63.4758C65.8105 48.5382 73.9202 40.3041 85.5807 40.3041C97.2413 40.3041 105.353 48.5022 105.353 63.3636ZM94.4018 63.3636C94.4018 53.114 91.4519 48.6144 85.594 48.6144C79.7361 48.6144 76.7817 53.114 76.7817 63.4758C76.7817 73.7251 79.7317 78.229 85.594 78.229C91.4563 78.229 94.4018 73.6891 94.4018 63.3636Z" fill="white"/>
</svg>
